<?xml version="1.0" encoding="UTF-8" standalone="no"?>
<svg width="125px" height="27px" viewBox="0 0 125 27" version="1.1" xmlns="http://www.w3.org/2000/svg" xmlns:xlink="http://www.w3.org/1999/xlink">
    <!-- Generator: sketchtool 41.2 (35397) - http://www.bohemiancoding.com/sketch -->
    <title>28AF0D83-701E-4D83-84E3-17ECAEBA18F0</title>
    <desc>Created with sketchtool.</desc>
    <defs></defs>
    <g id="Symbols" stroke="none" stroke-width="1" fill="none" fill-rule="evenodd">
        <g id="Header/Op02/Black" transform="translate(-137.000000, -26.000000)" fill="#000000">
            <g id="Header/Op02/White">
                <path d="M189.558801,43.6770428 C189.65252,46.3016398 192.696215,46.116219 193.353799,46.1011681 L193.351161,35.6969644 C193.285527,33.6834027 191.491522,33.3241983 190.354016,33.2691152 L189.551198,33.2692703 L189.558801,43.6770428 Z M209.111265,40.4263285 C208.538556,39.6885242 207.586315,38.9620469 206.253612,38.6655287 C205.57477,38.5055548 205.071884,38.4368172 204.398007,38.4244041 L202.561643,38.4244041 C202.371257,38.4244041 202.170009,38.421456 201.96752,38.4099738 C200.766242,38.4031466 199.600495,38.178159 199.600495,37.1353025 C199.600495,36.0218465 200.947318,35.8601658 202.024931,35.8601658 L207.045724,35.8601658 C209.147419,35.8077204 209.232604,33.779263 209.25805,33.3066338 C208.898381,33.303996 202.740547,33.2588433 201.675812,33.3067889 C200.579424,33.3562862 199.288616,33.5297594 198.372839,33.8923774 C196.593419,34.5758743 195.8086,35.8783199 195.8086,37.2139706 C195.8086,38.7617303 196.967364,40.9349557 201.220561,41.0094343 L203.481765,41.0094343 C204.559223,41.0094343 205.9062,41.1709599 205.9062,42.2844159 C205.9062,43.3440301 204.702904,43.5595527 203.481765,43.5595527 L198.416285,43.5595527 C196.331503,43.6348072 196.264317,45.6776948 196.239646,46.1242565 L203.987754,46.1231704 C204.880412,46.0966373 206.22289,45.9379047 207.138357,45.5763728 C208.929724,44.891945 209.690182,43.747301 209.695457,42.2175403 C209.684906,41.9098503 209.64534,41.6282279 209.576602,41.3731385 C209.482728,41.0238646 209.32834,40.7096577 209.111265,40.4263285 Z M222.992521,43.535223 L218.959501,43.535223 C215.760022,43.535223 215.721386,40.9605887 215.721386,40.9605887 L222.241993,40.9605887 C224.190541,40.852905 224.326775,38.9924901 224.355791,38.456554 L224.355791,38.3861096 L215.694853,38.3861096 C215.694853,38.3861096 216.061971,35.9823108 218.927538,35.8560074 L223.077085,35.8560074 C225.020358,35.7455307 225.156592,33.8880639 225.185918,33.3524382 L225.185918,33.2684945 L218.552196,33.2684945 C217.408638,33.2684945 216.257012,33.5581855 215.096231,34.1394294 C212.822925,35.2455927 211.687126,37.156591 211.693487,39.8680799 C211.688212,40.5301641 211.764397,41.1514403 211.919251,41.7305119 C212.105913,42.4343353 212.410965,43.0615077 212.83208,43.6126498 C213.632881,44.6406105 214.808557,45.3683291 216.360196,45.8007708 C217.156652,46.0178451 217.858148,46.1242875 218.466546,46.1242875 L225.179401,46.1242875 C225.155195,45.7324987 225.126335,43.6062881 222.992521,43.535223 Z M242.491795,33.2691772 L241.686029,33.2693324 L241.672065,43.5196135 L238.94056,43.5196135 C237.655182,43.4789606 236.703252,42.7146233 236.273448,42.1606883 C235.966378,41.7678133 235.740615,41.3021665 235.599261,40.7623514 C235.479009,40.3136174 235.423615,39.8160069 235.427184,39.2602098 L235.424236,35.6841479 C235.354412,33.7598054 233.699589,33.3545174 232.563169,33.2770906 L231.66989,33.2797284 L231.65996,39.7350113 C231.65996,40.4237838 231.736456,41.0574731 231.890068,41.6365447 C232.090074,42.3925031 232.41235,43.0530357 232.855342,43.6169013 C233.65754,44.6560338 234.820803,45.3856144 236.350564,45.8017639 C237.135383,46.0179072 237.826328,46.1241944 238.424019,46.1241944 L245.482114,46.1241944 L245.483976,35.6036178 C245.366361,33.6726033 243.611458,33.3233294 242.491795,33.2691772 Z M261.8841,36.5617858 C261.76571,36.1170861 261.566169,35.7125739 261.287339,35.3479388 C260.632548,34.5130019 259.577744,33.9207414 258.129289,33.570071 C257.385588,33.3956668 256.396108,33.3067579 255.799038,33.3067579 L248.550867,33.3067579 L248.539385,43.6968417 C248.609209,45.6913182 250.381956,46.064177 251.519307,46.1215877 L252.344934,46.120967 L252.348969,42.2999013 L255.681734,42.2999013 C256.630716,42.2999013 257.955195,42.0840683 259.015119,41.6534886 C261.009286,40.8571875 262.005593,39.5175026 261.999231,37.6317959 C262.005903,37.2409381 261.969285,36.8856128 261.8841,36.5617858 Z M255.518657,39.7199914 L252.34571,39.7199914 L252.351451,35.9239071 L255.333081,35.9239071 C256.564461,35.9239071 257.303507,36.1876857 257.796773,36.71726 C257.965746,36.8966295 258.087239,37.1047042 258.16327,37.3408637 C258.215094,37.5112336 258.234024,37.6949476 258.234024,37.8974365 C258.234024,39.6096699 256.180586,39.7199914 255.518657,39.7199914 Z M145.795154,46.2616386 C141.191132,40.123821 140.348281,39.1777868 139.581306,38.1215862 C139.581306,38.1215862 142.975206,37.2657023 145.584442,40.3834101 C145.870098,40.6962205 148.338135,43.7265711 149.556482,45.1303387 C154.082302,50.3379489 156.975488,49.7694285 159.232191,46.9882711 C158.877642,47.099989 158.519368,47.1705886 158.152561,47.1943287 C156.011765,47.3260628 153.767164,46.0155487 151.204788,43.0784516 L148.795869,40.3210343 C145.546116,36.6016009 143.332393,34.568954 143.332393,34.568954 C143.357064,34.5461449 147.301175,33.2806283 150.190016,36.3308399 C152.704757,38.9850732 154.615445,41.0302884 154.615445,41.0302884 C156.790998,43.2593727 158.409357,44.2400084 159.697217,43.9459728 C160.639993,43.7288986 161.234891,42.8401199 161.631801,41.9403245 C161.287026,42.1120909 160.919288,42.2160507 160.516172,42.2239641 C159.562845,42.2401011 158.550556,41.6995102 157.425153,40.5699171 C154.172918,37.3057346 150.457363,33.2753527 150.457363,33.2753527 C150.457363,33.2753527 154.152902,32.6557834 156.510306,34.739324 C159.026289,36.962512 160.129504,38.8368917 162.144152,39.0767751 C161.895424,32.3476279 156.366935,26.9699581 149.577584,26.9699581 C142.632759,26.9699581 137,32.600545 137,39.5461458 C137,46.4945396 142.632759,52.1238852 149.577584,52.1238852 C151.256923,52.1238852 152.473563,51.8521932 153.939241,51.2532606 C151.877578,50.9513117 149.433592,51.1123718 145.795154,46.2616386 Z M186.884722,35.6872356 C186.810244,33.585696 184.847265,33.2935224 183.728689,33.2631103 L183.265059,33.2623345 C183.232785,33.2629552 183.202683,33.2635758 183.174909,33.2640413 L183.18034,43.5180464 L181.168175,43.5180464 C180.656134,43.4885652 179.491163,43.266836 179.446011,41.8616719 L179.43577,35.6746674 C179.357567,33.6811218 177.573493,33.3240897 176.440176,33.2691617 L175.762575,33.2693169 L175.764282,43.5245633 L175.591274,43.5036161 C174.560986,43.3549691 173.258385,42.8741163 172.688003,42.0647815 C172.428879,41.6971982 172.236476,41.2793419 172.109242,40.807954 C171.985886,40.3466518 171.920562,39.8406624 171.915442,39.2850205 L171.913735,35.6763742 C171.83274,33.5863167 169.877675,33.2938328 168.76065,33.2632655 L168.291124,33.2624897 C168.241937,33.2634206 168.198026,33.2643516 168.160011,33.2648171 L168.147753,39.7348406 C168.144339,40.4094932 168.222852,41.0434928 168.379878,41.6365292 C168.579419,42.3785228 168.902159,43.0392106 169.349342,43.6168858 C170.164418,44.6560183 171.334198,45.3855988 172.862717,45.8017484 C173.649554,46.0178917 174.340343,46.1241789 174.937259,46.1241789 L186.900704,46.1241789 L186.884722,35.6872356 Z" id="logo-wiseup-white"></path>
            </g>
        </g>
    </g>
</svg>